<svg xmlns="http://www.w3.org/2000/svg" viewBox="0 0 70 70"><defs><style>.cls-1{fill:#0d4d8b;}</style></defs><title>Asset 14</title><g id="Layer_2" data-name="Layer 2"><g id="Layer_1-2" data-name="Layer 1"><path class="cls-1" d="M35,0A35,35,0,1,0,70,35,35,35,0,0,0,35,0ZM48.92,27.86q0,.46,0,.93c0,9.49-7.22,20.43-20.43,20.43A20.32,20.32,0,0,1,17.5,46a14.59,14.59,0,0,0,1.71.1A14.41,14.41,0,0,0,28.13,43a7.19,7.19,0,0,1-6.71-5,7.2,7.2,0,0,0,3.24-.12,7.18,7.18,0,0,1-5.76-7s0-.06,0-.09a7.15,7.15,0,0,0,3.25.9,7.19,7.19,0,0,1-2.22-9.59,20.39,20.39,0,0,0,14.8,7.5A7.19,7.19,0,0,1,47,23a14.38,14.38,0,0,0,4.56-1.74,7.2,7.2,0,0,1-3.16,4,14.36,14.36,0,0,0,4.12-1.13A14.6,14.6,0,0,1,48.92,27.86Z"/></g></g></svg>