<svg xmlns="http://www.w3.org/2000/svg" viewBox="0 0 70 70"><defs><style>.cls-1{fill:#0d4d8b;}</style></defs><title>Asset 15</title><g id="Layer_2" data-name="Layer 2"><g id="Layer_1-2" data-name="Layer 1"><ellipse class="cls-1" cx="35.04" cy="35.04" rx="6.73" ry="6.71"/><rect class="cls-1" x="41.81" y="21.49" width="6.69" height="6.67" rx="0.98" ry="0.98"/><path class="cls-1" d="M35,0A35,35,0,1,0,70,35,35,35,0,0,0,35,0ZM52.5,48.35a4.16,4.16,0,0,1-4.16,4.15H21.66a4.16,4.16,0,0,1-4.16-4.15V21.65a4.16,4.16,0,0,1,4.16-4.15H48.34a4.16,4.16,0,0,1,4.16,4.15Z"/><path class="cls-1" d="M45.69,35a10.65,10.65,0,1,1-20.92-2.81H21.5V47.45a1,1,0,0,0,1,1H47.61a1,1,0,0,0,1-1V32.23H45.31A10.57,10.57,0,0,1,45.69,35Z"/></g></g></svg>