<svg xmlns="http://www.w3.org/2000/svg" viewBox="0 0 70 70"><defs><style>.cls-1{fill:#0d4d8b;}</style></defs><title>Asset 16</title><g id="Layer_2" data-name="Layer 2"><g id="Layer_1-2" data-name="Layer 1"><path class="cls-1" d="M35,0A35,35,0,1,0,70,35,35,35,0,0,0,35,0ZM52.5,36.32A53,53,0,0,1,52.15,42a7.57,7.57,0,0,1-1.39,3.47,5,5,0,0,1-3.51,1.48c-4.9.35-12.25.37-12.25.37s-9.1-.08-11.9-.35a5.93,5.93,0,0,1-3.86-1.5A7.57,7.57,0,0,1,17.85,42a52.94,52.94,0,0,1-.35-5.66V33.67A52.94,52.94,0,0,1,17.85,28a7.57,7.57,0,0,1,1.39-3.47A5,5,0,0,1,22.75,23c4.9-.35,12.24-.35,12.24-.35h0s7.35,0,12.24.35a5,5,0,0,1,3.51,1.48A7.57,7.57,0,0,1,52.15,28a53,53,0,0,1,.35,5.66Z"/><polygon class="cls-1" points="31.39 39.54 40.84 34.64 31.39 29.71 31.39 39.54"/></g></g></svg>