<svg xmlns="http://www.w3.org/2000/svg" viewBox="0 0 70 70"><defs><style>.cls-1{fill:#0d4d8b;}</style></defs><title>Asset 13</title><g id="Layer_2" data-name="Layer 2"><g id="Layer_1-2" data-name="Layer 1"><path class="cls-1" d="M35,0A35,35,0,1,0,70,35,35,35,0,0,0,35,0ZM25.34,52.47H18.08V29.13h7.26ZM21.71,25.94a4.21,4.21,0,1,1,4.2-4.21A4.2,4.2,0,0,1,21.71,25.94ZM52.5,52.47H45.25V41.12c0-2.71,0-6.19-3.77-6.19s-4.35,2.95-4.35,6V52.47H29.89V29.13h7v3.19h.1a7.62,7.62,0,0,1,6.86-3.77c7.34,0,8.7,4.83,8.7,11.12Z"/></g></g></svg>